<svg width="346" height="222" viewBox="0 0 346 222" fill="none" xmlns="http://www.w3.org/2000/svg">
<rect y="108.837" width="324" height="120" rx="16" transform="rotate(-19.6283 0 108.837)" fill="#FF5400"/>
<path d="M118.073 116.627L112.953 102.273L107.325 104.28L106.76 102.698L119.871 98.022L120.436 99.6044L114.83 101.604L119.949 115.958L118.073 116.627ZM125.879 113.843L122.808 105.231C122.647 104.778 122.468 104.324 122.271 103.868C122.089 103.406 121.898 102.965 121.697 102.544L123.46 101.915L124.669 104.592L124.361 104.728C124.27 103.996 124.335 103.344 124.556 102.773C124.777 102.201 125.106 101.719 125.543 101.325C125.974 100.916 126.469 100.612 127.027 100.413C127.253 100.333 127.451 100.27 127.623 100.226C127.809 100.177 127.988 100.156 128.16 100.162L128.718 101.798C128.465 101.803 128.238 101.833 128.037 101.888C127.845 101.922 127.629 101.982 127.388 102.068C126.725 102.305 126.201 102.67 125.816 103.164C125.447 103.652 125.223 104.191 125.144 104.78C125.08 105.363 125.148 105.933 125.347 106.491L127.733 113.182L125.879 113.843ZM138.417 109.601C137.407 109.961 136.442 110.042 135.522 109.844C134.596 109.63 133.767 109.162 133.033 108.438C132.314 107.709 131.737 106.734 131.302 105.514C130.861 104.278 130.688 103.15 130.784 102.131C130.894 101.107 131.242 100.226 131.829 99.4905C132.416 98.7546 133.215 98.2066 134.224 97.8465C135.249 97.481 136.225 97.4303 137.151 97.6944C138.088 97.938 138.835 98.4614 139.393 99.2646L139.122 99.3613L138.411 96.5826L140.174 95.9538C140.285 96.4069 140.398 96.8676 140.514 97.3359C140.64 97.7837 140.778 98.2185 140.929 98.6405L144.041 107.366L142.209 108.019L141.258 105.352L141.507 105.263C141.583 106.238 141.335 107.116 140.765 107.897C140.194 108.679 139.411 109.247 138.417 109.601ZM138.246 107.98C139.331 107.593 140.058 106.918 140.428 105.954C140.792 104.974 140.719 103.769 140.209 102.337C139.693 100.89 138.986 99.9107 138.09 99.398C137.188 98.8702 136.195 98.7998 135.11 99.1868C134.04 99.5684 133.315 100.252 132.936 101.236C132.566 102.2 132.64 103.406 133.156 104.853C133.666 106.284 134.372 107.264 135.274 107.792C136.185 108.299 137.176 108.362 138.246 107.98ZM150.816 104.95L141.909 95.3352L143.898 94.6258L151.53 103.166L150.92 103.384L151.471 91.925L153.37 91.2478L152.557 104.329L150.816 104.95ZM164.439 100.321C162.66 100.955 161.076 100.942 159.686 100.283C158.29 99.6087 157.264 98.3523 156.609 96.5137C156.184 95.3232 156.042 94.2102 156.182 93.1749C156.317 92.1245 156.706 91.2131 157.348 90.4406C157.984 89.6531 158.83 89.0712 159.885 88.6949C160.924 88.3241 161.876 88.2309 162.741 88.4153C163.605 88.5997 164.37 89.0317 165.037 89.7111C165.699 90.3754 166.226 91.2577 166.618 92.3578L166.86 93.036L158.067 96.1721L157.655 95.0192L165.251 92.3104L164.971 92.7413C164.541 91.5357 163.934 90.6905 163.15 90.2059C162.365 89.7212 161.438 89.6697 160.368 90.0513C159.238 90.4544 158.499 91.1681 158.151 92.1926C157.797 93.202 157.86 94.3773 158.338 95.7186L158.411 95.922C158.916 97.3386 159.647 98.2925 160.603 98.7837C161.57 99.2545 162.686 99.2641 163.952 98.8127C164.63 98.5708 165.228 98.2471 165.746 97.8416C166.273 97.4156 166.725 96.8723 167.101 96.2116L168.193 97.2744C167.868 97.934 167.369 98.5365 166.698 99.0819C166.035 99.6068 165.282 100.02 164.439 100.321ZM171.621 97.5298L165.687 80.8923L167.518 80.2392L173.452 96.8768L171.621 97.5298ZM176.646 95.7378L175.823 93.4321L178.129 92.6097L178.952 94.9155L176.646 95.7378ZM186.486 92.4578C185.37 92.8556 184.312 92.9611 183.312 92.7745C182.326 92.5824 181.448 92.1225 180.679 91.3946C179.925 90.6613 179.33 89.6843 178.895 88.4636C178.454 87.2279 178.307 86.0999 178.452 85.0796C178.593 84.0443 178.989 83.1555 179.642 82.4131C180.309 81.6654 181.193 81.0954 182.293 80.703C183.017 80.445 183.763 80.3232 184.533 80.3376C185.317 80.3465 186.019 80.504 186.638 80.8099L186.45 82.3548C185.842 82.079 185.229 81.9324 184.611 81.9149C184.008 81.892 183.451 81.9719 182.939 82.1547C181.763 82.5739 180.983 83.2683 180.598 84.2378C180.214 85.2074 180.274 86.4005 180.779 87.8171C181.279 89.2186 181.99 90.1881 182.912 90.7256C183.834 91.2631 184.883 91.3222 186.059 90.903C186.556 90.7256 187.033 90.4449 187.491 90.0609C187.964 89.6715 188.353 89.1674 188.659 88.5487L189.774 89.6034C189.479 90.2523 189.03 90.8284 188.428 91.3318C187.826 91.8353 187.179 92.2106 186.486 92.4578ZM197.344 88.5852C196.259 88.9722 195.226 89.0772 194.246 88.9003C193.275 88.7029 192.416 88.2451 191.667 87.5269C190.913 86.7936 190.321 85.8241 189.891 84.6185C189.455 83.3978 189.3 82.2725 189.426 81.2426C189.551 80.2126 189.93 79.3216 190.562 78.5696C191.203 77.7971 192.067 77.2174 193.152 76.8304C194.252 76.4381 195.287 76.3406 196.258 76.538C197.239 76.7149 198.103 77.1625 198.852 77.8807C199.616 78.5936 200.215 79.5603 200.651 80.781C201.081 81.9866 201.228 83.1146 201.093 84.165C200.968 85.195 200.584 86.0962 199.943 86.8687C199.31 87.6207 198.444 88.1929 197.344 88.5852ZM196.812 87.0933C197.897 86.7063 198.624 86.0307 198.994 85.0665C199.358 84.0873 199.285 82.8818 198.775 81.4502C198.259 80.0034 197.545 79.0264 196.633 78.519C195.732 77.9913 194.746 77.9182 193.676 78.2998C192.606 78.6814 191.889 79.3618 191.525 80.3411C191.155 81.3052 191.228 82.5107 191.744 83.9574C192.255 85.3891 192.961 86.3688 193.863 86.8966C194.759 87.4093 195.742 87.4749 196.812 87.0933ZM205.529 85.4368L202.417 76.7111C202.267 76.2892 202.091 75.8677 201.89 75.4468C201.698 75.0055 201.502 74.5743 201.301 74.1534L203.064 73.5246L204.177 75.9305L203.906 76.0273C203.901 75.0608 204.139 74.2284 204.621 73.5301C205.117 72.8264 205.833 72.308 206.767 71.9748C207.716 71.6362 208.566 71.5881 209.315 71.8306C210.079 72.0677 210.735 72.6234 211.285 73.4976L210.946 73.6185C210.926 72.6574 211.189 71.7991 211.735 71.0438C212.281 70.2885 213.036 69.7389 214.001 69.3949C215.251 68.9488 216.322 68.9746 217.213 69.4722C218.099 69.9548 218.816 70.9647 219.364 72.5018L221.895 79.5999L220.064 80.2529L217.573 73.2679C217.192 72.1979 216.726 71.489 216.178 71.1411C215.624 70.7781 214.932 70.7444 214.103 71.0401C213.154 71.3787 212.519 71.9789 212.197 72.8409C211.886 73.6824 211.926 74.6532 212.319 75.7534L214.617 82.1959L212.785 82.8489L210.294 75.8638C209.913 74.7939 209.448 74.0849 208.899 73.737C208.345 73.3741 207.653 73.3404 206.824 73.636C205.875 73.9746 205.247 74.5722 204.941 75.4288C204.63 76.2703 204.67 77.2411 205.063 78.3413L207.36 84.7838L205.529 85.4368Z" fill="white"/>
<path d="M77.5465 176.046C75.8385 176.655 74.1658 177.014 72.5284 177.122C70.891 177.23 69.4173 177.099 68.1072 176.728L68.1823 172.557C69.0303 172.775 69.8934 172.909 70.7716 172.958C71.6498 173.007 72.5432 172.972 73.4516 172.852C74.3529 172.711 75.2656 172.476 76.19 172.147C77.6367 171.631 78.5827 171.044 79.0278 170.387C79.4931 169.723 79.6039 169.049 79.3602 168.366C79.138 167.743 78.7587 167.346 78.222 167.175C77.6983 166.977 76.851 166.951 75.6799 167.097L71.8653 167.642C69.7729 167.935 68.0725 167.771 66.764 167.151C65.4555 166.53 64.5146 165.416 63.9413 163.809C63.454 162.442 63.3929 161.128 63.758 159.865C64.123 158.603 64.8583 157.457 65.9637 156.429C67.0892 155.393 68.5361 154.56 70.3044 153.929C71.8114 153.392 73.2932 153.101 74.7498 153.057C76.2064 153.013 77.4964 153.233 78.6198 153.716L78.4587 157.646C77.3984 157.277 76.2985 157.114 75.1591 157.158C74.0326 157.175 72.8464 157.405 71.6006 157.85C70.2945 158.315 69.3723 158.905 68.8338 159.618C68.3154 160.324 68.1996 161.078 68.4862 161.882C68.7012 162.485 69.0878 162.902 69.6459 163.133C70.1969 163.344 71.0442 163.371 72.188 163.212L75.9316 162.658C78.0642 162.351 79.7811 162.497 81.0824 163.097C82.3837 163.698 83.3139 164.782 83.8728 166.349C84.3458 167.675 84.3962 168.96 84.024 170.202C83.6718 171.438 82.943 172.57 81.8376 173.598C80.7451 174.599 79.3147 175.415 77.5465 176.046ZM95.3355 169.701C94.0093 170.174 92.7292 170.268 91.4952 169.984C90.2612 169.699 89.1515 169.064 88.1661 168.079C87.1807 167.095 86.3905 165.768 85.7957 164.1C85.2081 162.453 84.9842 160.936 85.124 159.55C85.2638 158.163 85.725 156.98 86.5075 155.999C87.2829 154.997 88.3337 154.26 89.6599 153.787C90.8856 153.35 92.0882 153.261 93.2677 153.52C94.4601 153.751 95.3861 154.316 96.0459 155.213L95.7143 155.331L95.0118 152.218L99.3822 150.66C99.5584 151.344 99.7382 152.039 99.9215 152.743C100.118 153.421 100.331 154.081 100.56 154.724L104.591 166.027L100.07 167.639L99.0186 164.787L99.3803 164.658C99.4027 165.737 99.0356 166.74 98.279 167.666C97.5223 168.593 96.5411 169.271 95.3355 169.701ZM95.4966 165.771C96.5414 165.398 97.2528 164.726 97.6306 163.753C98.0085 162.78 97.9215 161.52 97.3697 159.973C96.8179 158.426 96.0915 157.405 95.1905 156.911C94.2896 156.417 93.3166 156.356 92.2718 156.729C91.2269 157.101 90.5119 157.764 90.1269 158.717C89.7419 159.669 89.8253 160.919 90.3771 162.467C90.9289 164.014 91.6488 165.048 92.5369 165.569C93.445 166.084 94.4316 166.151 95.4966 165.771ZM112.607 163.168L100.556 150.241L105.349 148.532L113.675 158.065L112.68 158.419L113.245 145.715L117.736 144.114L116.525 161.771L112.607 163.168ZM132.228 156.544C129.576 157.49 127.252 157.515 125.256 156.618C123.26 155.722 121.825 154.048 120.951 151.597C120.385 150.009 120.202 148.512 120.402 147.104C120.622 145.689 121.176 144.45 122.065 143.385C122.967 142.294 124.181 141.475 125.708 140.931C127.215 140.393 128.586 140.267 129.82 140.552C131.074 140.829 132.16 141.461 133.078 142.447C134.009 143.406 134.747 144.649 135.291 146.177L135.668 147.231L124.968 151.047L124.162 148.787L131.546 146.153L131.184 146.758C130.733 145.492 130.131 144.631 129.379 144.174C128.64 143.69 127.789 143.62 126.824 143.964C125.759 144.344 125.075 145.03 124.772 146.021C124.489 147.005 124.609 148.231 125.132 149.698L125.304 150.18C125.834 151.667 126.59 152.643 127.571 153.109C128.573 153.567 129.767 153.549 131.153 153.054C131.977 152.76 132.715 152.384 133.367 151.925C134.031 151.439 134.613 150.847 135.111 150.148L137.452 152.71C136.889 153.545 136.159 154.293 135.262 154.952C134.385 155.605 133.373 156.136 132.228 156.544ZM155.166 148.363C153.257 149.044 151.654 149.027 150.357 148.312C149.053 147.576 148.018 146.134 147.251 143.984L143.961 134.761L148.513 133.138L151.802 142.361C152.146 143.325 152.591 143.97 153.138 144.296C153.705 144.615 154.4 144.628 155.224 144.334C156.128 144.011 156.76 143.435 157.121 142.604C157.494 141.746 157.491 140.785 157.111 139.72L154.059 131.16L158.61 129.537L164.06 144.818L159.629 146.398L158.586 143.474L159.008 143.324C158.912 144.513 158.535 145.554 157.879 146.445C157.236 147.308 156.331 147.948 155.166 148.363ZM170.132 149.991L163.779 132.178C163.549 131.535 163.296 130.889 163.02 130.24C162.736 129.571 162.436 128.92 162.119 128.285L166.489 126.726L167.915 129.581L167.583 129.7C167.527 128.587 167.876 127.568 168.633 126.641C169.383 125.694 170.38 124.999 171.626 124.555C172.952 124.082 174.232 123.988 175.466 124.272C176.693 124.537 177.799 125.162 178.785 126.146C179.79 127.124 180.587 128.437 181.175 130.084C181.769 131.752 181.987 133.283 181.827 134.676C181.687 136.062 181.229 137.256 180.454 138.257C179.679 139.259 178.628 139.996 177.302 140.469C176.076 140.906 174.877 141.005 173.705 140.766C172.552 140.521 171.644 139.973 170.978 139.123L171.34 138.994L174.683 148.368L170.132 149.991ZM174.69 137.527C175.755 137.147 176.476 136.471 176.854 135.498C177.232 134.526 177.145 133.266 176.593 131.718C176.041 130.171 175.315 129.151 174.414 128.656C173.513 128.162 172.53 128.105 171.465 128.485C170.42 128.858 169.695 129.524 169.29 130.484C168.905 131.437 168.988 132.687 169.54 134.234C170.092 135.781 170.822 136.812 171.73 137.326C172.658 137.833 173.645 137.9 174.69 137.527ZM202.622 131.439C200.632 132.148 198.96 132.19 197.604 131.563C196.241 130.917 195.205 129.599 194.495 127.61L192.27 121.371L189.377 122.403L188.162 118.997L191.056 117.965L189.723 114.228L193.876 111.489L195.607 116.342L199.525 114.944L200.74 118.35L196.821 119.748L198.961 125.746C199.305 126.71 199.742 127.302 200.273 127.52C200.804 127.738 201.381 127.736 202.003 127.514C202.385 127.378 202.69 127.247 202.916 127.121C203.156 126.967 203.399 126.79 203.644 126.589L204.902 130.116C204.577 130.413 204.215 130.667 203.814 130.877C203.421 131.108 203.024 131.295 202.622 131.439ZM214.515 127.197C212.888 127.777 211.356 127.961 209.921 127.748C208.499 127.508 207.245 126.913 206.16 125.964C205.094 125.008 204.267 123.706 203.679 122.058C203.099 120.431 202.919 118.91 203.139 117.495C203.379 116.073 203.977 114.829 204.934 113.763C205.91 112.69 207.212 111.863 208.84 111.283C210.467 110.702 211.998 110.519 213.433 110.732C214.868 110.945 216.119 111.529 217.184 112.485C218.27 113.435 219.104 114.723 219.684 116.35C220.272 117.998 220.445 119.533 220.205 120.955C219.985 122.37 219.39 123.624 218.421 124.717C217.445 125.79 216.143 126.617 214.515 127.197ZM213.29 123.761C214.335 123.388 215.026 122.723 215.364 121.764C215.721 120.799 215.624 119.542 215.072 117.995C214.521 116.448 213.804 115.424 212.923 114.922C212.063 114.414 211.11 114.346 210.065 114.719C209.02 115.091 208.315 115.751 207.95 116.696C207.605 117.634 207.709 118.877 208.261 120.424C208.813 121.972 209.522 123.01 210.39 123.538C211.278 124.059 212.245 124.134 213.29 123.761ZM234.101 119.838L237.6 97.3563L238.138 98.8633L227.227 102.755L225.83 98.8363L241.111 93.3864L242.358 96.8827L239.255 118L234.101 119.838ZM259.224 111.252C256.672 112.162 254.363 111.91 252.295 110.495C250.241 109.054 248.59 106.585 247.344 103.088C246.075 99.5319 245.794 96.5856 246.502 94.2497C247.222 91.8865 248.858 90.2499 251.409 89.3398C253.981 88.4225 256.284 88.6546 258.317 90.036C260.342 91.3973 261.986 93.8462 263.247 97.3827C264.501 100.899 264.789 103.865 264.111 106.282C263.425 108.678 261.796 110.335 259.224 111.252ZM257.87 107.454C259.035 107.039 259.695 106.158 259.849 104.812C260.016 103.439 259.652 101.496 258.756 98.9843C257.86 96.4726 256.924 94.7681 255.947 93.8708C254.99 92.9663 253.929 92.7218 252.764 93.1375C251.598 93.5531 250.921 94.4174 250.733 95.7304C250.564 97.0362 250.924 98.9349 251.813 101.427C252.716 103.958 253.667 105.703 254.665 106.661C255.656 107.598 256.724 107.863 257.87 107.454ZM278.264 104.088L274.406 105.464L279.305 79.7646L283.163 78.3887L278.264 104.088ZM271.704 96.7449C269.956 97.3683 268.381 97.2729 266.981 96.4586C265.574 95.6243 264.515 94.2124 263.806 92.2232C263.089 90.2138 263.019 88.4609 263.595 86.9644C264.184 85.4406 265.343 84.3706 267.071 83.7543C268.819 83.1309 270.397 83.2363 271.804 84.0707C273.204 84.885 274.256 86.2767 274.958 88.2459C275.667 90.2352 275.741 91.9981 275.179 93.5348C274.61 95.0514 273.452 96.1214 271.704 96.7449ZM270.704 93.9418C271.307 93.7268 271.665 93.2706 271.779 92.5733C271.912 91.8687 271.746 90.8634 271.281 89.5573C270.808 88.2311 270.304 87.3577 269.769 86.937C269.254 86.5091 268.695 86.4027 268.092 86.6177C267.469 86.8398 267.094 87.2795 266.966 87.9367C266.83 88.5738 267.003 89.5655 267.483 90.9117C267.963 92.258 268.464 93.1551 268.986 93.6031C269.509 94.0511 270.081 94.164 270.704 93.9418ZM290.498 100.098C288.75 100.722 287.172 100.616 285.765 99.7819C284.358 98.9476 283.299 97.5357 282.59 95.5464C281.873 93.5371 281.803 91.7842 282.379 90.2877C282.975 88.784 284.137 87.724 285.865 87.1077C287.634 86.4771 289.208 86.5725 290.588 87.394C291.988 88.2083 293.039 89.6 293.742 91.5692C294.451 93.5585 294.525 95.3214 293.963 96.8581C293.421 98.3876 292.267 99.4677 290.498 100.098ZM289.477 97.235C290.1 97.0128 290.472 96.5631 290.593 95.8858C290.726 95.1813 290.56 94.176 290.095 92.8699C289.622 91.5437 289.118 90.6702 288.583 90.2495C288.06 89.8016 287.488 89.6887 286.865 89.9108C286.262 90.1258 285.887 90.5655 285.739 91.2298C285.611 91.887 285.787 92.8888 286.267 94.235C286.747 95.5813 287.248 96.4784 287.77 96.9264C288.305 97.3471 288.874 97.45 289.477 97.235Z" fill="white"/>
</svg>
