<svg width="47" height="40" viewBox="0 0 47 40" fill="none" xmlns="http://www.w3.org/2000/svg">
<g clip-path="url(#clip0_14_907)">
<path d="M39.0105 15.8875L36.4539 15.8875C35.7003 13.7652 34.3722 11.8938 32.6177 10.4817C30.8633 9.06968 28.7512 8.17239 26.5169 7.88981C24.2825 7.60723 22.0136 7.95045 19.9628 8.88126C17.9121 9.81206 16.1599 11.2939 14.9016 13.1617C14.6725 13.51 14.5423 13.9139 14.5248 14.3303C14.5072 14.7468 14.6031 15.1602 14.8021 15.5265C15.0011 15.8927 15.2957 16.1981 15.6547 16.4101C16.0136 16.622 16.4233 16.7325 16.8402 16.7299L19.9301 16.7299L19.9301 23.2702L16.8917 23.2702C16.4725 23.2684 16.0608 23.3808 15.7007 23.5954C15.3406 23.8099 15.0458 24.1186 14.848 24.4881C14.6502 24.8577 14.5568 25.2741 14.5779 25.6928C14.599 26.1114 14.7338 26.5164 14.9678 26.8641C16.2346 28.7053 17.9842 30.1618 20.0245 31.0737C22.0649 31.9856 24.3171 32.3176 26.5338 32.0333C28.7505 31.749 30.8459 30.8594 32.5901 29.4621C34.3343 28.0648 35.6597 26.2139 36.4208 24.1126L38.9958 24.1126C38.1004 27.131 36.2537 29.7791 33.7307 31.6624C31.2077 33.5457 28.1437 34.5632 24.9954 34.5632C17.0425 34.5632 6.58083 27.0002 1.33897 22.7589C0.922886 22.4198 0.587517 21.9924 0.357193 21.5075C0.126869 21.0227 0.00736635 20.4927 0.00736635 19.9559C0.00736636 19.4192 0.126869 18.8891 0.357193 18.4043C0.587517 17.9195 0.922886 17.492 1.33897 17.1529C6.54405 12.9116 16.9321 5.3633 25.0064 5.3633C28.165 5.36665 31.2372 6.3942 33.7622 8.29175C36.2872 10.1893 38.1287 12.8545 39.0105 15.8875Z" fill="#FF5400"/>
<path d="M3.69322 18.4514C3.36452 18.556 3.07758 18.7624 2.87392 19.0408C2.67025 19.3192 2.5604 19.6551 2.56024 20.0001C2.5604 20.345 2.67025 20.681 2.87392 20.9593C3.07758 21.2377 3.36452 21.4441 3.69322 21.5487L6.01435 23.2703L39.5402 23.2703C40.5847 23.2704 41.6256 23.1469 42.6412 22.9024C43.6385 22.6551 44.6011 22.2844 45.5067 21.7989C45.8539 21.6416 46.1485 21.3876 46.3551 21.0673C46.5616 20.747 46.6715 20.3739 46.6715 19.9927C46.6715 19.6116 46.5616 19.2385 46.3551 18.9181C46.1485 18.5978 45.8539 18.3438 45.5067 18.1866C44.6011 17.7011 43.6385 17.3304 42.6412 17.083C41.6256 16.8385 40.5847 16.7151 39.5402 16.7152L6.01435 16.7152L3.69322 18.4514Z" fill="#FF5400"/>
<path d="M34.7729 17.6348L22.1078 1.03738C21.8603 0.714485 21.5417 0.45294 21.1768 0.273043C20.812 0.0931471 20.4105 -0.000269107 20.0037 4.17855e-05L18.7346 4.17704e-05L24.0868 17.6348L34.7729 17.6348Z" fill="#FF5400"/>
<path d="M34.7729 22.3653L22.1078 38.9627C21.8603 39.2856 21.5417 39.5471 21.1768 39.727C20.812 39.9069 20.4105 40.0003 20.0037 40L18.7346 40L24.0868 22.3653L34.7729 22.3653Z" fill="#FF5400"/>
<path d="M20.9307 37.0167C20.9297 36.7217 21.0449 36.4381 21.2515 36.2274C21.458 36.0168 21.7392 35.8959 22.0342 35.8911L24.0868 35.8911C24.3854 35.8911 24.6717 36.0097 24.8828 36.2208C25.0938 36.4319 25.2124 36.7182 25.2124 37.0167C25.2124 37.3152 25.0938 37.6015 24.8828 37.8126C24.6717 38.0237 24.3854 38.1423 24.0868 38.1423L22.0342 38.1423C21.7392 38.1375 21.458 38.0167 21.2515 37.806C21.0449 37.5953 20.9297 37.3117 20.9307 37.0167Z" fill="#FF5400"/>
<path d="M20.9307 2.98327C20.9297 2.68823 21.0449 2.40467 21.2515 2.194C21.458 1.98332 21.7392 1.86248 22.0342 1.85765L24.0868 1.85765C24.3854 1.85765 24.6717 1.97625 24.8828 2.18734C25.0938 2.39843 25.2124 2.68473 25.2124 2.98327C25.2124 3.2818 25.0938 3.56811 24.8828 3.7792C24.6717 3.9903 24.3854 4.10889 24.0868 4.10889L22.0342 4.10889C21.7392 4.10405 21.458 3.98321 21.2515 3.77254C21.0449 3.56186 20.9297 3.2783 20.9307 2.98327Z" fill="#FF5400"/>
<path d="M28.1516 27.3974C28.1491 27.248 28.1764 27.0997 28.2319 26.961C28.2874 26.8223 28.3699 26.696 28.4747 26.5896C28.5794 26.4831 28.7044 26.3985 28.8421 26.3408C28.9799 26.2831 29.1278 26.2534 29.2772 26.2534L31.3261 26.2534C31.6246 26.2534 31.9109 26.372 32.122 26.5831C32.3331 26.7942 32.4517 27.0805 32.4517 27.379C32.4517 27.6776 32.3331 27.9639 32.122 28.175C31.9109 28.3861 31.6246 28.5046 31.3261 28.5046L29.2772 28.5046C28.9818 28.5047 28.6983 28.3886 28.4877 28.1815C28.2771 27.9743 28.1564 27.6927 28.1516 27.3974Z" fill="#FF5400"/>
<path d="M28.1516 12.6027C28.1516 12.3041 28.2702 12.0178 28.4812 11.8067C28.6923 11.5956 28.9786 11.477 29.2772 11.477L31.3261 11.477C31.6246 11.477 31.9109 11.5956 32.122 11.8067C32.3331 12.0178 32.4517 12.3041 32.4517 12.6027C32.4517 12.9012 32.3331 13.1875 32.122 13.3986C31.9109 13.6097 31.6246 13.7283 31.3261 13.7283L29.2772 13.7283C28.9786 13.7283 28.6923 13.6097 28.4812 13.3986C28.2702 13.1875 28.1516 12.9012 28.1516 12.6027Z" fill="#FF5400"/>
</g>
<defs>
<clipPath id="clip0_14_907">
<rect width="40" height="46.6728" fill="white" transform="matrix(1.19249e-08 -1 -1 -1.19249e-08 46.6728 40)"/>
</clipPath>
</defs>
</svg>
